<?xml version="1.0" encoding="utf-8"?>
<!-- Generated by IcoMoon.io -->
<svg version="1.1" xmlns="http://www.w3.org/2000/svg" xmlns:xlink="http://www.w3.org/1999/xlink" width="40" height="32" viewBox="0 0 752 32">
<svg id="telegram_icon" width="32" height="32" viewBox="0 0 32 32" x="0" y="0">
<path d="M13.040 24.867l0.373-5.64 10.24-9.227c0.453-0.413-0.093-0.613-0.693-0.253l-12.64 7.987-5.467-1.733c-1.173-0.333-1.187-1.147 0.267-1.733l21.293-8.213c0.973-0.44 1.907 0.24 1.533 1.733l-3.627 17.080c-0.253 1.213-0.987 1.507-2 0.947l-5.52-4.080-2.653 2.573c-0.307 0.307-0.56 0.56-1.107 0.56z"></path>
</svg>
<svg id="phone_icon" width="32" height="32" viewBox="0 0 32 32" x="0" y="0">
<path d="M24.882 19.773l-3.268-0.373c-0.785-0.090-1.557 0.18-2.11 0.733l-2.367 2.367c-3.641-1.853-6.626-4.825-8.478-8.478l2.38-2.38c0.553-0.553 0.823-1.325 0.733-2.11l-0.373-3.242c-0.154-1.299-1.248-2.277-2.56-2.277h-2.226c-1.454 0-2.663 1.209-2.573 2.663 0.682 10.987 9.469 19.761 20.443 20.443 1.454 0.090 2.663-1.119 2.663-2.573v-2.226c0.013-1.3-0.965-2.393-2.264-2.547z"></path>
</svg>
<svg id="instagram_icon" width="32" height="32" viewBox="0 0 32 32" x="0" y="0">
<path d="M16.096 9.28c-3.712 0-6.752 3.040-6.752 6.752s3.040 6.752 6.752 6.752c3.712 0 6.72-3.040 6.72-6.752s-3.040-6.752-6.72-6.752zM16.096 21.184c-2.848 0-5.152-2.304-5.152-5.152s2.304-5.152 5.152-5.152c2.816 0 5.12 2.304 5.12 5.152s-2.304 5.152-5.12 5.152z"></path>
<path d="M23.616 5.472c-0.704 0-1.344 0.256-1.824 0.736s-0.736 1.12-0.736 1.824c0 0.704 0.256 1.344 0.736 1.824s1.12 0.736 1.824 0.736 1.344-0.256 1.824-0.736v0c0.448-0.448 0.736-1.088 0.768-1.792v-0.032c0-0.672-0.288-1.312-0.736-1.76-0.48-0.512-1.152-0.8-1.856-0.8zM24.288 8.704c-0.352 0.352-1.024 0.352-1.376 0-0.192-0.192-0.288-0.416-0.288-0.672s0.096-0.512 0.288-0.672c0.192-0.192 0.416-0.288 0.672-0.288s0.512 0.096 0.704 0.288c0.16 0.16 0.288 0.416 0.288 0.64 0 0.288-0.096 0.544-0.288 0.704z"></path>
<path d="M21.696 2.24h-11.232c-4.512 0-8.16 3.648-8.16 8.16v11.264c0 4.512 3.648 8.16 8.16 8.16h11.264c4.512 0 8.16-3.648 8.16-8.16v-11.264c-0.032-4.512-3.68-8.16-8.192-8.16zM28.256 21.664c0 3.616-2.944 6.56-6.56 6.56h-11.232c-3.616 0-6.56-2.944-6.56-6.56v-11.264c0-3.616 2.944-6.56 6.56-6.56h11.264c3.616 0 6.56 2.944 6.56 6.56v11.264z"></path>
</svg>

</svg>
