<?xml version="1.0" standalone="no"?>
<!DOCTYPE svg PUBLIC "-//W3C//DTD SVG 20010904//EN"
 "http://www.w3.org/TR/2001/REC-SVG-20010904/DTD/svg10.dtd">
<svg version="1.0" xmlns="http://www.w3.org/2000/svg"
 width="1440.000000pt" height="1426.000000pt" viewBox="0 0 1440.000000 1426.000000"
 preserveAspectRatio="xMidYMid meet">
<metadata>
Created by potrace 1.16, written by Peter Selinger 2001-2019
</metadata>
<g transform="translate(0.000000,1426.000000) scale(0.100000,-0.100000)"
fill="#000000" stroke="none">
<path d="M6945 12100 c-1208 -72 -2225 -515 -3012 -1311 -530 -538 -901 -1162
-1163 -1959 -70 -212 -72 -221 -56 -245 18 -27 57 -34 74 -12 5 6 26 66 47
132 219 713 555 1325 1008 1840 405 461 927 841 1477 1077 476 205 966 324
1515 368 168 13 594 13 755 0 534 -44 946 -134 1415 -307 377 -140 771 -358
1095 -607 753 -580 1299 -1398 1625 -2434 40 -127 56 -149 95 -137 43 14 43
38 0 173 -236 744 -557 1340 -996 1847 -415 480 -844 813 -1399 1085 -552 271
-1138 427 -1805 479 -193 16 -509 20 -675 11z"/>
<path d="M7130 11473 c-665 -18 -1239 -157 -1825 -444 -543 -265 -1039 -683
-1396 -1174 -235 -325 -419 -708 -518 -1078 -35 -132 -32 -157 18 -157 39 0
48 14 77 122 145 547 437 1040 874 1479 444 446 916 735 1529 939 268 89 520
145 846 186 177 23 705 26 890 6 703 -78 1315 -290 1835 -636 521 -346 926
-787 1259 -1369 96 -168 219 -437 301 -662 18 -49 40 -98 48 -107 29 -34 82
-16 82 27 0 12 -20 75 -44 141 -273 736 -695 1344 -1261 1814 -499 414 -1138
708 -1815 834 -293 55 -645 85 -900 79z"/>
<path d="M7270 10445 c0 -9 7 -18 15 -21 25 -10 17 -31 -16 -44 -46 -19 -69
-64 -69 -132 0 -31 -4 -60 -10 -63 -6 -4 -10 -67 -10 -155 0 -88 4 -151 10
-155 6 -3 10 -13 10 -21 0 -12 -11 -14 -47 -12 -54 3 -65 21 -15 26 l32 3 0
160 0 159 -29 0 c-23 0 -30 5 -33 23 -2 18 -9 22 -38 22 -29 0 -36 -4 -38 -22
-3 -18 -10 -23 -33 -23 l-29 0 0 -160 0 -160 30 0 c20 0 30 -5 30 -15 0 -11
-12 -15 -45 -15 l-45 0 0 161 0 160 -47 -3 -48 -3 0 -200 c0 -199 0 -200 22
-203 12 -2 32 -19 43 -38 l22 -34 114 0 115 0 10 -29 c8 -22 18 -31 37 -33
l27 -3 3 -99 c1 -55 7 -105 13 -112 6 -7 13 -48 15 -91 3 -43 10 -87 15 -98 5
-11 13 -39 17 -63 4 -24 12 -43 17 -42 13 1 34 109 34 177 1 28 6 55 11 58 6
3 10 19 10 36 0 16 5 29 10 29 6 0 10 42 10 105 0 91 2 105 16 105 9 0 22 7
29 16 10 15 13 15 27 0 28 -28 48 -20 48 18 0 40 -18 56 -35 33 -7 -10 -20
-17 -30 -17 -14 0 -15 3 -5 15 16 19 4 71 -20 88 -10 7 -20 24 -22 37 -2 21
-9 26 -40 28 -51 4 -53 32 -3 32 l35 0 0 160 c0 103 -4 160 -10 160 -6 0 -1
14 12 30 40 55 19 137 -43 159 -31 11 -39 35 -14 45 8 3 15 12 15 21 0 11 -11
15 -40 15 -29 0 -40 -4 -40 -15z m75 -91 c17 -7 45 -54 45 -78 0 -8 -11 -28
-24 -43 -24 -27 -25 -27 -38 -10 -20 27 -72 20 -76 -10 -7 -47 -22 -21 -22 37
0 51 4 65 25 85 24 24 57 31 90 19z m-205 -319 l0 -135 -75 0 -75 0 0 128 c0
71 3 132 7 135 3 4 37 7 75 7 l68 0 0 -135z m220 0 l0 -135 -75 0 -75 0 0 128
c0 71 3 132 7 135 3 4 37 7 75 7 l68 0 0 -135z m-448 -62 l3 -158 228 -3 c193
-2 227 -5 227 -17 0 -13 -36 -15 -250 -15 l-250 0 0 175 c0 168 1 175 20 175
18 0 20 -8 22 -157z m498 -227 c0 -2 3 -11 6 -20 6 -14 -19 -16 -235 -16 -133
0 -241 2 -241 4 0 2 -3 11 -6 20 -6 14 19 16 235 16 133 0 241 -2 241 -4z
m-50 -216 l0 -90 -50 0 -50 0 0 83 c0 46 3 87 7 90 3 4 26 7 50 7 l43 0 0 -90z"/>
<path d="M5750 7568 c-49 -9 -83 -30 -114 -72 -19 -24 -21 -42 -21 -156 0
-147 8 -166 83 -208 110 -61 272 5 272 111 0 25 -3 27 -45 27 -39 0 -47 -3
-55 -24 -18 -48 -93 -63 -130 -26 -17 17 -20 33 -20 120 0 87 3 103 20 120 29
29 84 27 116 -5 19 -19 35 -25 69 -25 39 0 45 3 45 21 0 78 -110 137 -220 117z"/>
<path d="M11455 7556 c-73 -33 -95 -86 -94 -221 0 -109 13 -149 60 -187 60
-48 180 -53 238 -10 57 42 66 66 69 186 4 132 -7 169 -64 212 -32 24 -48 29
-108 32 -45 1 -82 -3 -101 -12z m145 -96 c17 -17 20 -33 20 -120 0 -116 -13
-140 -75 -140 -63 0 -75 24 -75 144 0 97 2 106 22 120 31 22 84 20 108 -4z"/>
<path d="M11995 7556 c-73 -33 -95 -83 -95 -216 0 -106 9 -141 43 -179 73 -79
235 -67 301 22 18 24 22 46 24 141 4 132 -7 169 -64 212 -32 24 -48 29 -108
32 -45 1 -82 -3 -101 -12z m145 -96 c17 -17 20 -33 20 -120 0 -116 -13 -140
-75 -140 -63 0 -75 24 -75 144 0 97 2 106 22 120 31 22 84 20 108 -4z"/>
<path d="M2120 7515 l0 -45 60 0 60 0 0 -176 0 -175 53 3 52 3 3 173 2 172 60
0 60 0 0 45 0 45 -175 0 -175 0 0 -45z"/>
<path d="M2640 7340 l0 -220 50 0 50 0 0 85 0 85 80 0 80 0 0 -85 0 -85 50 0
50 0 0 220 0 220 -50 0 -50 0 0 -85 0 -85 -80 0 -80 0 0 85 0 85 -50 0 -50 0
0 -220z"/>
<path d="M3210 7340 l0 -220 170 0 170 0 0 45 0 45 -120 0 -120 0 0 45 0 45
99 0 c105 0 111 3 111 54 0 39 -18 46 -117 46 l-93 0 0 35 0 34 113 3 112 3 3
43 3 42 -165 0 -166 0 0 -220z"/>
<path d="M4020 7340 l0 -220 138 0 c110 0 144 3 172 18 70 34 89 137 35 185
l-23 21 21 29 c26 34 27 95 3 133 -29 43 -72 54 -216 54 l-130 0 0 -220z m248
121 c8 -5 12 -21 10 -37 -3 -25 -8 -30 -38 -34 -33 -5 -35 -7 -38 -47 -3 -40
-2 -43 23 -43 40 0 65 -18 65 -45 0 -33 -27 -45 -104 -45 l-66 0 0 130 0 130
68 0 c37 0 73 -4 80 -9z"/>
<path d="M4584 7547 c-2 -7 -3 -105 -2 -217 l3 -205 160 0 160 0 0 40 0 40
-107 3 -108 3 0 174 0 175 -50 0 c-32 0 -52 -5 -56 -13z"/>
<path d="M5195 7548 c-2 -7 -38 -104 -80 -216 -41 -111 -75 -205 -75 -207 0
-3 23 -5 51 -5 48 0 51 2 65 35 l14 35 84 0 84 0 12 -35 c11 -34 13 -35 67
-35 48 0 54 2 48 18 -3 9 -40 108 -82 220 l-75 202 -54 0 c-35 0 -56 -5 -59
-12z"/>
<path d="M6160 7340 l0 -220 50 0 50 0 0 68 c0 59 3 72 24 91 l23 22 54 -91
53 -90 58 0 c32 0 58 4 58 10 0 5 -31 61 -70 124 -38 62 -70 117 -70 122 0 5
34 46 75 91 41 45 75 84 75 87 0 3 -28 6 -62 6 l-63 0 -70 -79 c-38 -44 -73
-80 -77 -80 -5 -1 -8 35 -8 79 l0 80 -50 0 -50 0 0 -220z"/>
<path d="M6950 7548 c0 -7 28 -105 63 -218 l62 -205 47 -3 46 -3 31 98 c18 54
35 105 38 113 3 8 22 -34 42 -95 l36 -110 43 -3 c36 -3 43 0 52 20 16 38 120
385 120 402 0 12 -11 16 -50 16 l-49 0 -31 -102 c-45 -152 -45 -151 -60 -98
-6 25 -22 79 -34 120 l-22 75 -41 3 -41 3 -16 -53 c-8 -29 -23 -81 -32 -115
-10 -35 -20 -63 -24 -63 -4 0 -19 44 -35 98 -39 135 -37 132 -95 132 -33 0
-50 -4 -50 -12z"/>
<path d="M7684 7536 c-10 -41 4 -66 37 -66 l30 0 -3 -132 -3 -133 -30 -5 c-32
-6 -41 -25 -31 -66 6 -23 9 -24 111 -24 114 0 125 5 117 60 -3 22 -10 30 -31
32 l-26 3 -3 133 -3 132 31 0 c29 0 30 2 30 45 l0 45 -110 0 c-108 0 -110 0
-116 -24z"/>
<path d="M8100 7341 l0 -221 159 0 c143 0 160 2 165 18 3 9 4 26 1 37 -2 11
-4 23 -4 28 -1 4 -48 7 -106 7 l-105 0 -2 173 -3 172 -52 3 -53 3 0 -220z"/>
<path d="M8600 7339 l0 -221 123 3 c107 4 127 7 160 27 59 37 72 70 72 192 0
126 -15 162 -85 198 -38 19 -60 22 -157 22 l-113 0 0 -221z m227 109 c21 -19
23 -30 23 -109 0 -83 -1 -89 -27 -109 -20 -16 -38 -20 -72 -18 l-46 3 -3 114
c-1 63 0 121 2 128 9 23 96 17 123 -9z"/>
<path d="M9392 7518 l3 -43 63 -3 62 -3 0 -174 0 -175 50 0 50 0 0 175 0 174
63 3 62 3 3 43 3 42 -181 0 -181 0 3 -42z"/>
<path d="M9991 7538 c-5 -13 -40 -108 -80 -211 -39 -104 -71 -193 -71 -198 0
-5 22 -9 50 -9 47 0 50 2 64 35 l15 35 85 0 84 0 12 -35 c11 -34 13 -35 61
-35 34 0 49 4 49 13 0 8 -34 105 -75 217 -41 112 -75 205 -75 207 0 1 -25 3
-55 3 -48 0 -57 -3 -64 -22z"/>
<path d="M10360 7515 l0 -45 60 0 60 0 0 -159 c0 -88 3 -166 6 -175 4 -12 20
-16 55 -16 l49 0 0 175 0 175 60 0 60 0 0 45 0 45 -175 0 -175 0 0 -45z"/>
<path d="M10852 7518 l3 -43 60 -5 60 -5 3 -172 2 -173 50 0 50 0 0 175 0 174
63 3 62 3 0 40 0 40 -178 3 -178 2 3 -42z"/>
<path d="M11066 6282 c-3 -5 -34 -87 -69 -183 -251 -678 -591 -1219 -1038
-1654 -616 -598 -1358 -952 -2234 -1065 -1110 -144 -2223 174 -3050 869 -586
494 -1001 1138 -1185 1840 -32 123 -53 158 -89 146 -43 -13 -44 -37 -7 -178
215 -815 729 -1548 1455 -2071 213 -153 599 -363 838 -456 835 -324 1718 -373
2600 -144 916 237 1700 791 2255 1594 219 317 428 733 567 1130 44 123 48 149
29 168 -14 14 -64 16 -72 4z"/>
<path d="M11753 6282 c-7 -5 -30 -66 -52 -138 -257 -857 -698 -1626 -1242
-2164 -197 -195 -358 -333 -539 -462 -691 -491 -1486 -765 -2405 -829 -333
-23 -814 1 -1133 56 -949 165 -1768 595 -2400 1262 -162 171 -230 251 -355
418 -358 478 -636 1052 -827 1705 -26 90 -34 100 -71 100 -55 0 -56 -30 -9
-186 381 -1270 1104 -2242 2118 -2848 138 -83 435 -227 597 -291 1124 -443
2440 -437 3605 18 187 73 529 245 700 352 487 305 902 695 1248 1172 344 473
630 1062 806 1659 39 131 42 154 24 172 -14 14 -47 16 -65 4z"/>
<path d="M6800 4803 c-55 -20 -83 -93 -35 -93 15 0 25 6 25 15 0 22 38 39 56
24 24 -20 16 -36 -46 -90 -42 -36 -60 -59 -60 -75 0 -23 2 -24 85 -24 84 0 85
0 85 25 0 23 -4 25 -41 25 l-42 0 42 45 c59 64 55 121 -10 144 -35 12 -37 12
-59 4z"/>
<path d="M7050 4803 c-8 -3 -25 -15 -37 -26 -20 -18 -23 -30 -23 -98 0 -72 2
-79 26 -98 38 -30 98 -28 129 4 22 21 25 33 25 94 0 58 -4 74 -22 95 -23 25
-71 39 -98 29z"/>
<path d="M7290 4797 c-27 -14 -55 -61 -45 -77 11 -18 47 -11 52 10 6 21 36 35
53 25 23 -14 7 -48 -50 -102 -33 -31 -60 -64 -60 -75 0 -17 7 -19 88 -16 79 3
87 5 87 23 0 16 -8 21 -37 23 -42 4 -49 16 -17 32 24 13 59 68 59 92 0 26 -42
67 -75 73 -16 3 -41 0 -55 -8z"/>
<path d="M7534 4796 c-32 -14 -44 -33 -44 -67 0 -27 46 -26 53 1 7 27 35 36
54 18 20 -21 8 -42 -56 -96 -36 -30 -51 -51 -51 -68 0 -24 2 -24 85 -24 84 0
85 0 85 25 0 23 -4 25 -41 25 l-42 0 42 45 c59 64 55 121 -10 144 -39 13 -37
13 -75 -3z"/>
</g>
</svg>
