<?xml version="1.0" standalone="no"?>
<!DOCTYPE svg PUBLIC "-//W3C//DTD SVG 20010904//EN"
 "http://www.w3.org/TR/2001/REC-SVG-20010904/DTD/svg10.dtd">
<svg version="1.0" xmlns="http://www.w3.org/2000/svg"
 width="800.000000pt" height="777.000000pt" viewBox="0 0 800.000000 777.000000"
 preserveAspectRatio="xMidYMid meet">

<g transform="translate(0.000000,777.000000) scale(0.100000,-0.100000)"
fill="#000000" stroke="none">
<path d="M0 3885 l0 -3885 4000 0 4000 0 0 3885 0 3885 -4000 0 -4000 0 0
-3885z m4392 2645 c422 -54 792 -188 1118 -405 376 -251 655 -573 873 -1011
104 -208 220 -525 199 -546 -28 -28 -45 -2 -92 138 -169 505 -434 907 -800
1213 -108 91 -142 116 -281 204 -357 226 -827 358 -1324 374 -346 11 -675 -41
-990 -154 -583 -210 -1051 -638 -1340 -1228 -46 -93 -107 -237 -136 -320 -28
-82 -56 -162 -61 -177 -10 -28 -41 -38 -53 -18 -15 24 119 388 202 553 213
422 495 743 868 992 110 73 249 149 335 185 216 88 297 115 460 154 100 24
354 62 470 70 111 8 399 -5 552 -24z m-187 -335 c542 -39 1044 -264 1415 -635
86 -85 187 -202 233 -270 156 -229 250 -406 320 -606 26 -73 24 -99 -9 -92
-14 2 -29 30 -55 98 -62 166 -124 288 -254 499 -70 113 -280 350 -393 443
-425 348 -894 512 -1462 512 -501 0 -905 -126 -1324 -414 -12 -8 -44 -33 -71
-55 -240 -195 -415 -407 -540 -653 -45 -90 -99 -231 -130 -339 -14 -49 -22
-63 -37 -63 -10 0 -21 6 -24 14 -15 40 86 318 172 471 166 295 382 529 658
713 110 73 300 175 388 208 297 112 508 159 768 174 133 7 186 6 345 -5z
m-131 -569 c-1 -9 9 -28 22 -41 23 -23 31 -55 17 -69 -4 -3 -6 -49 -4 -101 2
-90 2 -95 -18 -95 -12 0 -21 -4 -21 -10 0 -5 8 -10 18 -10 11 0 25 -16 37 -44
12 -26 25 -42 32 -39 8 3 13 -3 13 -17 0 -16 -4 -21 -16 -16 -26 10 -44 -13
-44 -56 0 -21 -4 -58 -9 -81 -5 -23 -15 -68 -22 -100 -7 -32 -16 -54 -20 -50
-8 9 -29 128 -36 211 -7 77 -35 102 -113 102 -49 0 -61 3 -70 20 -6 11 -17 20
-25 20 -12 0 -15 20 -15 110 l0 110 25 0 c25 0 25 -1 25 -80 0 -84 7 -97 47
-87 16 4 15 6 -4 12 -21 7 -23 13 -23 91 0 65 3 84 14 84 8 0 16 7 20 15 7 19
46 20 46 1 0 -14 34 -28 44 -18 3 3 6 22 6 43 0 28 6 42 26 58 14 11 23 25 19
31 -3 5 -3 15 0 21 10 15 30 5 29 -15z m-801 -1598 c26 -13 46 -38 47 -55 0
-18 -55 -16 -70 2 -15 18 -42 19 -58 3 -16 -16 -16 -120 0 -136 18 -18 46 -14
60 8 8 12 24 20 40 20 31 0 33 -7 17 -43 -27 -59 -134 -63 -176 -8 -17 22 -17
162 0 183 29 37 96 50 140 26z m3196 -2 c15 -8 32 -26 39 -41 14 -31 16 -114
2 -149 -23 -60 -133 -73 -177 -21 -19 21 -23 38 -23 93 0 73 15 107 54 122 32
13 74 12 105 -4z m300 0 c15 -8 32 -26 39 -41 14 -31 16 -114 2 -149 -23 -60
-133 -73 -177 -21 -19 21 -23 38 -23 93 0 73 15 107 54 122 32 13 74 12 105
-4z m-5399 -21 c0 -22 -4 -25 -35 -25 l-35 0 0 -101 c0 -98 0 -100 -22 -97
-22 3 -23 9 -28 98 l-5 95 -30 3 c-37 4 -50 16 -42 36 5 13 24 16 102 16 95 0
95 0 95 -25z m157 -10 c0 -16 2 -36 2 -42 1 -8 16 -13 41 -13 l40 0 0 45 c0
43 1 45 30 45 l31 0 -3 -122 -3 -123 -25 0 c-23 0 -25 4 -28 48 l-3 47 -40 0
c-33 0 -39 -3 -40 -22 -1 -13 -1 -27 0 -32 5 -27 -12 -47 -37 -44 l-27 3 -3
123 -3 123 33 -3 c29 -3 33 -7 35 -33z m441 13 c-3 -21 -9 -23 -65 -26 -55 -3
-63 -6 -63 -22 0 -17 7 -20 55 -20 52 0 55 -1 55 -25 0 -24 -3 -25 -55 -25
-52 0 -55 -1 -55 -25 0 -24 2 -25 66 -25 l65 0 -3 -27 c-3 -27 -5 -28 -73 -31
-121 -4 -115 -11 -115 128 l0 120 96 0 c93 0 95 -1 92 -22z m442 12 c23 -12
33 -55 19 -81 -8 -16 -8 -27 1 -44 37 -69 -19 -117 -130 -113 l-65 3 -3 123
-3 122 81 0 c45 0 90 -4 100 -10z m192 -2 c1 -7 2 -49 3 -93 l0 -80 63 -3 c62
-3 63 -3 60 -30 -3 -27 -3 -27 -88 -27 l-85 0 -3 123 -3 122 26 0 c14 0 26 -6
27 -12z m359 -15 c43 -109 76 -214 68 -219 -15 -9 -48 6 -59 27 -17 30 -83 26
-104 -6 -17 -26 -32 -30 -53 -17 -11 7 20 108 67 220 15 34 67 31 81 -5z m519
-15 l0 -42 44 43 c35 35 49 42 75 39 l31 -3 -41 -47 -40 -48 40 -67 c22 -37
38 -70 35 -75 -3 -4 -16 -8 -30 -8 -18 0 -32 12 -55 48 -16 26 -35 47 -42 47
-7 0 -14 -19 -17 -45 -4 -40 -8 -45 -30 -45 l-25 0 -3 123 -3 122 31 0 c29 0
30 -2 30 -42z m456 -3 c7 -22 14 -48 14 -57 0 -37 17 -16 33 42 15 52 20 60
41 60 21 0 27 -9 44 -62 11 -37 21 -57 25 -48 3 8 11 35 19 60 11 40 17 45 44
48 l32 3 -34 -113 c-18 -62 -34 -116 -34 -119 0 -11 -29 -19 -45 -13 -8 3 -21
30 -30 60 -9 30 -20 52 -24 49 -5 -3 -14 -27 -21 -55 -12 -48 -35 -70 -60 -55
-7 5 -40 101 -77 228 -4 16 0 18 27 15 27 -3 34 -9 46 -43z m464 20 c0 -18 -5
-25 -20 -25 -18 0 -20 -7 -20 -69 0 -62 2 -70 21 -76 14 -5 19 -14 17 -28 -3
-20 -10 -22 -65 -25 -61 -3 -63 -2 -63 21 0 14 7 27 15 31 11 4 15 22 15 76 0
56 -3 70 -15 70 -9 0 -15 9 -15 25 0 24 2 25 65 25 63 0 65 -1 65 -25z m160
-70 l0 -95 61 0 c60 0 60 0 57 -27 -3 -27 -5 -28 -73 -30 -111 -3 -105 -10
-105 128 l0 119 30 0 30 0 0 -95z m386 71 c24 -20 28 -32 32 -89 4 -63 3 -68
-26 -97 -28 -28 -36 -30 -101 -30 l-71 0 0 120 0 120 69 0 c59 0 74 -4 97 -24z
m472 2 c-2 -18 -11 -24 -35 -26 l-32 -3 -3 -97 c-3 -96 -3 -97 -28 -97 -25 0
-25 1 -28 98 l-3 97 -34 0 c-31 0 -35 3 -35 25 l0 25 101 0 c98 0 100 0 97
-22z m217 -25 c9 -27 28 -76 41 -111 31 -79 30 -92 -1 -92 -18 0 -28 7 -35 25
-8 22 -16 25 -55 25 -39 0 -47 -3 -55 -25 -10 -25 -43 -34 -55 -15 -5 8 27
109 72 228 3 6 20 12 38 12 29 0 34 -4 50 -47z m315 22 c0 -21 -5 -25 -30 -25
l-30 0 0 -94 c0 -87 -2 -95 -20 -101 -39 -12 -50 11 -50 106 l0 88 -32 3 c-25
2 -34 8 -36 26 -3 22 -1 22 97 22 l101 0 0 -25z m278 3 c-2 -18 -11 -24 -35
-26 l-32 -3 -3 -97 c-3 -96 -3 -97 -28 -97 -25 0 -25 1 -28 98 l-3 97 -34 0
c-31 0 -35 3 -35 25 l0 25 101 0 c98 0 100 0 97 -22z m-39 -691 c11 -14 -6
-69 -76 -247 -37 -96 -151 -313 -218 -415 -192 -293 -456 -548 -740 -715 -73
-43 -237 -123 -296 -145 -344 -127 -677 -178 -1009 -154 -178 12 -243 22 -390
59 -173 44 -212 56 -263 79 -25 12 -49 21 -52 21 -3 0 -31 11 -61 25 -30 14
-56 25 -58 25 -11 0 -225 123 -291 168 -380 258 -672 637 -813 1057 -46 138
-59 205 -41 216 24 15 33 5 52 -57 41 -138 53 -174 88 -259 102 -248 240 -455
434 -650 444 -447 1061 -674 1708 -627 553 40 1016 250 1403 636 77 77 234
266 234 282 0 4 8 17 18 28 28 33 115 181 170 291 48 98 81 175 137 323 26 71
42 85 64 59z m374 -33 c-1 -35 -49 -186 -108 -344 -9 -25 -51 -117 -94 -205
-153 -316 -318 -545 -564 -780 -196 -189 -341 -290 -588 -415 -598 -300 -1371
-359 -2019 -155 -372 117 -727 334 -994 609 -283 290 -486 625 -637 1050 -61
172 -74 223 -58 242 14 17 49 1 49 -22 0 -8 20 -75 45 -149 229 -687 631
-1189 1203 -1504 240 -133 576 -236 882 -272 148 -18 481 -18 635 0 599 68
1109 311 1501 712 138 142 206 225 302 371 156 235 291 518 367 773 37 126 42
137 63 133 13 -3 17 -13 15 -44z m-2735 -796 c19 -19 14 -56 -8 -70 -11 -7
-20 -16 -20 -20 0 -5 9 -8 20 -8 11 0 20 -7 20 -15 0 -11 -12 -15 -44 -15 -25
0 -47 4 -51 10 -3 5 11 27 31 50 37 41 39 64 4 42 -11 -7 -22 -12 -25 -12 -7
0 -6 36 2 43 11 11 58 8 71 -5z m140 4 c7 -5 13 -29 14 -57 1 -51 -16 -75 -53
-75 -39 0 -63 76 -39 121 11 20 54 26 78 11z m145 -14 c8 -12 7 -24 -3 -45 -8
-15 -16 -31 -18 -35 -2 -5 3 -8 12 -8 9 0 16 -7 16 -15 0 -11 -12 -15 -44 -15
-25 0 -48 5 -52 11 -3 6 11 28 32 50 40 41 40 61 -1 39 -31 -16 -40 -9 -25 20
14 26 67 25 83 -2z m138 1 c9 -18 7 -27 -10 -50 -22 -30 -26 -40 -13 -38 21 4
31 -3 26 -16 -4 -10 -20 -15 -50 -15 -54 0 -58 19 -14 57 32 27 40 53 15 53
-8 0 -15 -4 -15 -10 0 -5 -7 -10 -15 -10 -8 0 -15 6 -15 13 0 39 71 52 91 16z"/>
<path d="M4038 5579 c-12 -7 -18 -22 -17 -47 0 -20 3 -31 6 -24 6 15 43 16 43
1 0 -8 5 -8 15 1 21 18 19 57 -4 70 -23 12 -22 12 -43 -1z m40 -37 c2 -7 -3
-12 -12 -12 -9 0 -16 7 -16 16 0 17 22 14 28 -4z"/>
<path d="M3890 5405 l0 -75 40 0 40 0 0 75 0 75 -40 0 -40 0 0 -75z"/>
<path d="M4010 5478 c-1 -2 -2 -34 -3 -73 l-1 -70 42 -3 42 -3 0 75 0 76 -40
0 c-22 0 -40 -1 -40 -2z"/>
<path d="M3822 5363 l3 -98 133 -3 c85 -2 132 1 132 8 0 6 -46 10 -125 10
l-125 0 0 90 c0 55 -4 90 -10 90 -7 0 -10 -35 -8 -97z"/>
<path d="M3950 5310 c0 -5 11 -10 25 -10 14 0 25 5 25 10 0 6 -11 10 -25 10
-14 0 -25 -4 -25 -10z"/>
<path d="M3850 5240 c0 -6 52 -10 136 -10 87 0 133 4 129 10 -4 6 -60 10 -136
10 -79 0 -129 -4 -129 -10z"/>
<path d="M4000 5200 c0 -5 25 -10 55 -10 30 0 55 5 55 10 0 6 -25 10 -55 10
-30 0 -55 -4 -55 -10z"/>
<path d="M4040 5120 c0 -47 2 -50 25 -50 23 0 25 3 25 50 0 47 -2 50 -25 50
-23 0 -25 -3 -25 -50z"/>
<path d="M4050 5015 c0 -25 5 -45 10 -45 6 0 10 13 10 29 0 16 3 36 6 45 4 11
1 16 -10 16 -12 0 -16 -10 -16 -45z"/>
<path d="M6388 3979 c-14 -8 -18 -23 -18 -69 0 -49 3 -61 20 -70 45 -24 70 5
70 82 0 55 -32 81 -72 57z"/>
<path d="M6688 3979 c-14 -8 -18 -23 -18 -69 0 -49 3 -61 20 -70 28 -15 60 -3
61 23 6 83 4 100 -8 113 -17 16 -31 17 -55 3z"/>
<path d="M2290 3910 l0 -71 42 3 c31 2 44 8 46 20 2 11 -5 18 -20 20 -35 5
-37 45 -3 58 38 14 26 34 -23 38 l-42 3 0 -71z"/>
<path d="M2906 3928 c-10 -39 -7 -48 18 -48 23 0 24 2 13 35 -12 40 -22 44
-31 13z"/>
<path d="M4840 3910 l0 -70 30 0 c35 0 50 23 50 77 0 46 -14 63 -52 63 l-28 0
0 -70z"/>
<path d="M5576 3937 c-3 -14 -9 -32 -12 -41 -5 -12 0 -16 20 -16 24 0 26 3 20
28 -12 47 -21 57 -28 29z"/>
<path d="M3914 2456 c-9 -25 0 -61 16 -61 10 0 16 12 18 38 2 28 0 37 -13 37
-8 0 -18 -6 -21 -14z"/>
</g>
</svg>
