<?xml version="1.0" encoding="utf-8"?>
<!-- Generated by IcoMoon.io -->
<svg version="1.1" xmlns="http://www.w3.org/2000/svg" xmlns:xlink="http://www.w3.org/1999/xlink" width="752" height="32" viewBox="0 0 752 32">
<svg id="icon-svgicon" width="532" height="532" viewBox="0 0 32 32" x="0" y="0">
<path d="M15.585 4.847c-2.711 0.162-4.993 1.156-6.759 2.942-1.189 1.207-2.022 2.608-2.61 4.396-0.157 0.476-0.162 0.496-0.126 0.55 0.040 0.061 0.128 0.076 0.166 0.027 0.011-0.013 0.058-0.148 0.105-0.296 0.491-1.6 1.245-2.973 2.262-4.129 0.909-1.034 2.080-1.887 3.314-2.417 1.068-0.46 2.168-0.727 3.4-0.826 0.377-0.029 1.333-0.029 1.694 0 1.198 0.099 2.123 0.301 3.175 0.689 0.846 0.314 1.73 0.803 2.457 1.362 1.69 1.302 2.915 3.137 3.647 5.462 0.090 0.285 0.126 0.334 0.213 0.307 0.096-0.031 0.096-0.085 0-0.388-0.53-1.67-1.25-3.007-2.235-4.145-0.931-1.077-1.894-1.824-3.139-2.435-1.239-0.608-2.554-0.958-4.050-1.075-0.433-0.036-1.142-0.045-1.515-0.025z"></path>
<path d="M16 6.254c-1.492 0.040-2.78 0.352-4.095 0.996-1.219 0.595-2.332 1.533-3.133 2.635-0.527 0.729-0.94 1.589-1.162 2.419-0.079 0.296-0.072 0.352 0.040 0.352 0.088 0 0.108-0.031 0.173-0.274 0.325-1.228 0.981-2.334 1.961-3.319 0.996-1.001 2.056-1.649 3.431-2.107 0.601-0.2 1.167-0.325 1.898-0.417 0.397-0.052 1.582-0.058 1.997-0.013 1.578 0.175 2.951 0.651 4.118 1.427 1.169 0.776 2.078 1.766 2.825 3.072 0.215 0.377 0.491 0.981 0.675 1.486 0.040 0.11 0.090 0.22 0.108 0.24 0.065 0.076 0.184 0.036 0.184-0.061 0-0.027-0.045-0.168-0.099-0.316-0.613-1.652-1.56-3.016-2.83-4.071-1.12-0.929-2.554-1.589-4.073-1.872-0.657-0.123-1.447-0.191-2.020-0.177z"></path>
<path d="M16.314 8.561c0 0.020 0.016 0.040 0.034 0.047 0.056 0.022 0.038 0.070-0.036 0.099-0.103 0.043-0.155 0.144-0.155 0.296 0 0.070-0.009 0.135-0.022 0.141-0.013 0.009-0.022 0.15-0.022 0.348s0.009 0.339 0.022 0.348c0.013 0.007 0.022 0.029 0.022 0.047 0 0.027-0.025 0.031-0.105 0.027-0.121-0.007-0.146-0.047-0.034-0.058l0.072-0.007v-0.716h-0.065c-0.052 0-0.067-0.011-0.074-0.052-0.005-0.040-0.020-0.049-0.085-0.049s-0.081 0.009-0.085 0.049c-0.007 0.040-0.022 0.052-0.074 0.052h-0.065v0.718h0.067c0.045 0 0.067 0.011 0.067 0.034 0 0.025-0.027 0.034-0.101 0.034h-0.101v-0.72l-0.213 0.013v0.449c0 0.447 0 0.449 0.049 0.456 0.027 0.005 0.072 0.043 0.097 0.085l0.049 0.076h0.514l0.022 0.065c0.018 0.049 0.040 0.070 0.083 0.074l0.061 0.007 0.007 0.222c0.002 0.123 0.016 0.236 0.029 0.251s0.029 0.108 0.034 0.204c0.007 0.097 0.022 0.195 0.034 0.22s0.029 0.088 0.038 0.141c0.009 0.054 0.027 0.097 0.038 0.094 0.029-0.002 0.076-0.245 0.076-0.397 0.002-0.063 0.013-0.123 0.025-0.13 0.013-0.007 0.022-0.043 0.022-0.081 0-0.036 0.011-0.065 0.022-0.065 0.013 0 0.022-0.094 0.022-0.236 0-0.204 0.005-0.236 0.036-0.236 0.020 0 0.049-0.016 0.065-0.036 0.022-0.034 0.029-0.034 0.061 0 0.063 0.063 0.108 0.045 0.108-0.040 0-0.090-0.040-0.126-0.079-0.074-0.016 0.022-0.045 0.038-0.067 0.038-0.031 0-0.034-0.007-0.011-0.034 0.036-0.043 0.009-0.159-0.045-0.197-0.022-0.016-0.045-0.054-0.049-0.083-0.005-0.047-0.020-0.058-0.090-0.063-0.114-0.009-0.119-0.072-0.007-0.072h0.079v-0.359c0-0.231-0.009-0.359-0.022-0.359s-0.002-0.031 0.027-0.067c0.090-0.123 0.043-0.307-0.096-0.357-0.070-0.025-0.088-0.079-0.031-0.101 0.018-0.007 0.034-0.027 0.034-0.047 0-0.025-0.025-0.034-0.090-0.034s-0.090 0.009-0.090 0.034zM16.482 8.765c0.038 0.016 0.101 0.121 0.101 0.175 0 0.018-0.025 0.063-0.054 0.097-0.054 0.061-0.056 0.061-0.085 0.022-0.045-0.061-0.162-0.045-0.171 0.022-0.016 0.105-0.049 0.047-0.049-0.083 0-0.114 0.009-0.146 0.056-0.191 0.054-0.054 0.128-0.070 0.202-0.043zM16.022 9.481v0.303h-0.337v-0.287c0-0.159 0.007-0.296 0.016-0.303 0.007-0.009 0.083-0.016 0.168-0.016h0.153v0.303zM16.516 9.481v0.303h-0.337v-0.287c0-0.159 0.007-0.296 0.016-0.303 0.007-0.009 0.083-0.016 0.168-0.016h0.153v0.303zM15.511 9.62l0.007 0.355 0.512 0.007c0.433 0.005 0.509 0.011 0.509 0.038 0 0.029-0.081 0.034-0.561 0.034h-0.561v-0.393c0-0.377 0.002-0.393 0.045-0.393 0.040 0 0.045 0.018 0.049 0.352zM16.628 10.13c0 0.005 0.007 0.025 0.013 0.045 0.013 0.031-0.043 0.036-0.527 0.036-0.298 0-0.541-0.005-0.541-0.009s-0.007-0.025-0.013-0.045c-0.013-0.031 0.043-0.036 0.527-0.036 0.298 0 0.541 0.005 0.541 0.009zM16.516 10.614v0.202h-0.224v-0.186c0-0.103 0.007-0.195 0.016-0.202 0.007-0.009 0.058-0.016 0.112-0.016h0.096v0.202z"></path>
<path d="M12.903 15.017c-0.11 0.020-0.186 0.067-0.256 0.162-0.043 0.054-0.047 0.094-0.047 0.35 0 0.33 0.018 0.373 0.186 0.467 0.247 0.137 0.61-0.011 0.61-0.249 0-0.056-0.007-0.061-0.101-0.061-0.088 0-0.105 0.007-0.123 0.054-0.040 0.108-0.209 0.141-0.292 0.058-0.038-0.038-0.045-0.074-0.045-0.269s0.007-0.231 0.045-0.269c0.065-0.065 0.188-0.061 0.26 0.011 0.043 0.043 0.079 0.056 0.155 0.056 0.088 0 0.101-0.007 0.101-0.047 0-0.175-0.247-0.307-0.494-0.263z"></path>
<path d="M25.705 15.044c-0.164 0.074-0.213 0.193-0.211 0.496 0 0.245 0.029 0.334 0.135 0.42 0.135 0.108 0.404 0.119 0.534 0.022 0.128-0.094 0.148-0.148 0.155-0.417 0.009-0.296-0.016-0.379-0.144-0.476-0.072-0.054-0.108-0.065-0.242-0.072-0.101-0.002-0.184 0.007-0.227 0.027zM26.031 15.259c0.038 0.038 0.045 0.074 0.045 0.269 0 0.26-0.029 0.314-0.168 0.314-0.141 0-0.168-0.054-0.168-0.323 0-0.218 0.005-0.238 0.049-0.269 0.070-0.049 0.189-0.045 0.242 0.009z"></path>
<path d="M26.917 15.044c-0.164 0.074-0.213 0.186-0.213 0.485 0 0.238 0.020 0.316 0.096 0.402 0.164 0.177 0.527 0.15 0.675-0.049 0.040-0.054 0.049-0.103 0.054-0.316 0.009-0.296-0.016-0.379-0.144-0.476-0.072-0.054-0.108-0.065-0.242-0.072-0.101-0.002-0.184 0.007-0.227 0.027zM27.243 15.259c0.038 0.038 0.045 0.074 0.045 0.269 0 0.26-0.029 0.314-0.168 0.314-0.141 0-0.168-0.054-0.168-0.323 0-0.218 0.005-0.238 0.049-0.269 0.070-0.049 0.189-0.045 0.242 0.009z"></path>
<path d="M4.757 15.136v0.101h0.269v0.788l0.236-0.013 0.007-0.388 0.005-0.386h0.269v-0.202h-0.785v0.101z"></path>
<path d="M5.924 15.529v0.494h0.224v-0.382h0.359v0.382h0.224v-0.987h-0.224v0.382h-0.359v-0.382h-0.224v0.494z"></path>
<path d="M7.203 15.529v0.494h0.763v-0.202h-0.539v-0.202h0.222c0.236 0 0.249-0.007 0.249-0.121 0-0.088-0.040-0.103-0.263-0.103h-0.209v-0.155l0.505-0.013 0.007-0.097 0.007-0.094h-0.743v0.494z"></path>
<path d="M9.021 15.529v0.494h0.31c0.247 0 0.323-0.007 0.386-0.040 0.157-0.076 0.2-0.307 0.079-0.415l-0.052-0.047 0.047-0.065c0.058-0.076 0.061-0.213 0.007-0.298-0.065-0.097-0.162-0.121-0.485-0.121h-0.292v0.494zM9.578 15.257c0.018 0.011 0.027 0.047 0.022 0.083-0.007 0.056-0.018 0.067-0.085 0.076-0.074 0.011-0.079 0.016-0.085 0.105s-0.005 0.097 0.052 0.097c0.090 0 0.146 0.040 0.146 0.101 0 0.074-0.061 0.101-0.233 0.101h-0.148v-0.583h0.153c0.083 0 0.164 0.009 0.18 0.020z"></path>
<path d="M10.287 15.064c-0.005 0.016-0.007 0.236-0.005 0.487l0.007 0.46h0.718v-0.18l-0.482-0.013v-0.783h-0.112c-0.072 0-0.117 0.011-0.126 0.029z"></path>
<path d="M11.658 15.062c-0.005 0.016-0.085 0.233-0.18 0.485-0.092 0.249-0.168 0.46-0.168 0.465 0 0.007 0.052 0.011 0.114 0.011 0.108 0 0.114-0.005 0.146-0.079l0.031-0.079h0.377l0.027 0.079c0.025 0.076 0.029 0.079 0.15 0.079 0.108 0 0.121-0.005 0.108-0.040-0.007-0.020-0.090-0.242-0.184-0.494l-0.168-0.453h-0.121c-0.079 0-0.126 0.011-0.132 0.027z"></path>
<path d="M13.823 15.529v0.494h0.224v-0.153c0-0.132 0.007-0.162 0.054-0.204l0.052-0.049 0.121 0.204 0.119 0.202h0.13c0.072 0 0.13-0.009 0.13-0.022 0-0.011-0.070-0.137-0.157-0.278-0.085-0.139-0.157-0.263-0.157-0.274s0.076-0.103 0.168-0.204c0.092-0.101 0.168-0.188 0.168-0.195s-0.063-0.013-0.139-0.013h-0.141l-0.157 0.177c-0.085 0.099-0.164 0.18-0.173 0.18-0.011 0.002-0.018-0.079-0.018-0.177v-0.18h-0.224v0.494z"></path>
<path d="M15.596 15.062c0 0.016 0.063 0.236 0.141 0.489l0.139 0.46 0.209 0.013 0.070-0.22c0.040-0.121 0.079-0.236 0.085-0.254s0.049 0.076 0.094 0.213l0.081 0.247 0.096 0.007c0.081 0.007 0.096 0 0.117-0.045 0.036-0.085 0.269-0.864 0.269-0.902 0-0.027-0.025-0.036-0.112-0.036h-0.11l-0.070 0.229c-0.101 0.341-0.101 0.339-0.135 0.22-0.013-0.056-0.049-0.177-0.076-0.269l-0.049-0.168-0.184-0.013-0.036 0.119c-0.018 0.065-0.052 0.182-0.072 0.258-0.022 0.079-0.045 0.141-0.054 0.141s-0.043-0.099-0.079-0.22c-0.088-0.303-0.083-0.296-0.213-0.296-0.074 0-0.112 0.009-0.112 0.027z"></path>
<path d="M17.243 15.089c-0.022 0.092 0.009 0.148 0.083 0.148h0.067l-0.007 0.296-0.007 0.298-0.067 0.011c-0.072 0.013-0.092 0.056-0.070 0.148 0.013 0.052 0.020 0.054 0.249 0.054 0.256 0 0.28-0.011 0.263-0.135-0.007-0.049-0.022-0.067-0.070-0.072l-0.058-0.007-0.007-0.298-0.007-0.296h0.070c0.065 0 0.067-0.005 0.067-0.101v-0.101h-0.247c-0.242 0-0.247 0-0.26 0.054z"></path>
<path d="M18.177 15.527v0.496h0.357c0.321 0 0.359-0.005 0.37-0.040 0.007-0.020 0.009-0.058 0.002-0.083-0.005-0.025-0.009-0.052-0.009-0.063-0.002-0.009-0.108-0.016-0.238-0.016h-0.236l-0.005-0.388-0.007-0.386-0.236-0.013v0.494z"></path>
<path d="M19.299 15.531v0.496l0.276-0.007c0.24-0.009 0.285-0.016 0.359-0.061 0.132-0.083 0.162-0.157 0.162-0.431 0-0.283-0.034-0.364-0.191-0.444-0.085-0.043-0.135-0.049-0.352-0.049h-0.254v0.496zM19.808 15.286c0.047 0.043 0.052 0.067 0.052 0.245 0 0.186-0.002 0.2-0.061 0.245-0.045 0.036-0.085 0.045-0.162 0.040l-0.103-0.007-0.007-0.256c-0.002-0.141 0-0.272 0.005-0.287 0.020-0.052 0.215-0.038 0.276 0.020z"></path>
<path d="M21.076 15.129l0.007 0.097 0.28 0.013v0.783h0.224v-0.783l0.28-0.013 0.007-0.097 0.007-0.094h-0.812l0.007 0.094z"></path>
<path d="M22.42 15.084c-0.011 0.029-0.090 0.242-0.18 0.473-0.088 0.233-0.159 0.433-0.159 0.444s0.049 0.020 0.112 0.020c0.105 0 0.112-0.005 0.144-0.079l0.034-0.079h0.379l0.027 0.079c0.025 0.076 0.029 0.079 0.137 0.079 0.076 0 0.11-0.009 0.11-0.029 0-0.018-0.076-0.236-0.168-0.487s-0.168-0.46-0.168-0.465c0-0.002-0.056-0.007-0.123-0.007-0.108 0-0.128 0.007-0.144 0.049z"></path>
<path d="M23.248 15.136v0.101h0.269v0.357c0 0.197 0.007 0.373 0.013 0.393 0.009 0.027 0.045 0.036 0.123 0.036h0.11v-0.785h0.269v-0.202h-0.785v0.101z"></path>
<path d="M24.352 15.129l0.007 0.097 0.269 0.022 0.007 0.386 0.005 0.388h0.224v-0.783l0.28-0.013v-0.18l-0.399-0.007-0.399-0.005 0.007 0.094z"></path>
<path d="M24.833 17.903c-0.007 0.011-0.076 0.195-0.155 0.411-0.563 1.521-1.326 2.735-2.329 3.712-1.382 1.342-3.047 2.136-5.013 2.39-2.491 0.323-4.989-0.39-6.844-1.95-1.315-1.109-2.246-2.554-2.659-4.129-0.072-0.276-0.119-0.355-0.2-0.328-0.096 0.029-0.099 0.083-0.016 0.399 0.482 1.829 1.636 3.474 3.265 4.647 0.478 0.343 1.344 0.815 1.88 1.023 1.874 0.727 3.855 0.837 5.835 0.323 2.056-0.532 3.815-1.775 5.060-3.577 0.491-0.711 0.96-1.645 1.272-2.536 0.099-0.276 0.108-0.334 0.065-0.377-0.031-0.031-0.144-0.036-0.162-0.009z"></path>
<path d="M26.374 17.903c-0.016 0.011-0.067 0.148-0.117 0.31-0.577 1.923-1.566 3.649-2.787 4.856-0.442 0.438-0.803 0.747-1.21 1.037-1.551 1.102-3.335 1.717-5.397 1.86-0.747 0.052-1.827-0.002-2.543-0.126-2.13-0.37-3.967-1.335-5.386-2.832-0.364-0.384-0.516-0.563-0.797-0.938-0.803-1.073-1.427-2.361-1.856-3.826-0.058-0.202-0.076-0.224-0.159-0.224-0.123 0-0.126 0.067-0.020 0.417 0.855 2.85 2.477 5.031 4.753 6.391 0.31 0.186 0.976 0.509 1.34 0.653 2.522 0.994 5.475 0.981 8.090-0.040 0.42-0.164 1.187-0.55 1.571-0.79 1.093-0.684 2.024-1.56 2.801-2.63 0.772-1.061 1.414-2.383 1.809-3.723 0.088-0.294 0.094-0.346 0.054-0.386-0.031-0.031-0.105-0.036-0.146-0.009z"></path>
<path d="M15.259 21.222c-0.123 0.045-0.186 0.209-0.079 0.209 0.034 0 0.056-0.013 0.056-0.034 0-0.049 0.085-0.088 0.126-0.054 0.054 0.045 0.036 0.081-0.103 0.202-0.094 0.081-0.135 0.132-0.135 0.168 0 0.052 0.005 0.054 0.191 0.054 0.188 0 0.191 0 0.191-0.056 0-0.052-0.009-0.056-0.092-0.056h-0.094l0.094-0.101c0.132-0.144 0.123-0.272-0.022-0.323-0.079-0.027-0.083-0.027-0.132-0.009z"></path>
<path d="M15.82 21.222c-0.018 0.007-0.056 0.034-0.083 0.058-0.045 0.040-0.052 0.067-0.052 0.22 0 0.162 0.005 0.177 0.058 0.22 0.085 0.067 0.22 0.063 0.289-0.009 0.049-0.047 0.056-0.074 0.056-0.211 0-0.13-0.009-0.166-0.049-0.213-0.052-0.056-0.159-0.088-0.22-0.065z"></path>
<path d="M16.359 21.235c-0.061 0.031-0.123 0.137-0.101 0.173 0.025 0.040 0.105 0.025 0.117-0.022 0.013-0.047 0.081-0.079 0.119-0.056 0.052 0.031 0.016 0.108-0.112 0.229-0.074 0.070-0.135 0.144-0.135 0.168 0 0.038 0.016 0.043 0.197 0.036 0.177-0.007 0.195-0.011 0.195-0.052 0-0.036-0.018-0.047-0.083-0.052-0.094-0.009-0.11-0.036-0.038-0.072 0.054-0.029 0.132-0.153 0.132-0.206 0-0.058-0.094-0.15-0.168-0.164-0.036-0.007-0.092 0-0.123 0.018z"></path>
<path d="M16.907 21.238c-0.072 0.031-0.099 0.074-0.099 0.15 0 0.061 0.103 0.058 0.119-0.002s0.079-0.081 0.121-0.040c0.045 0.047 0.018 0.094-0.126 0.215-0.081 0.067-0.114 0.114-0.114 0.153 0 0.054 0.005 0.054 0.191 0.054 0.189 0 0.191 0 0.191-0.056 0-0.052-0.009-0.056-0.092-0.056h-0.094l0.094-0.101c0.132-0.144 0.123-0.272-0.022-0.323-0.088-0.029-0.083-0.029-0.168 0.007z"></path>
</svg>
</svg>
