<svg xmlns="http://www.w3.org/2000/svg" width="752" height="32"><svg width="33" height="32" viewBox="0 0 33 32"><path d="M0 16v16h32.947V0H0v16zM18.088 5.107c1.738.222 3.262.774 4.604 1.668 1.549 1.034 2.698 2.36 3.595 4.164.428.857.906 2.162.82 2.249-.115.115-.185.008-.379-.568-.696-2.08-1.787-3.735-3.295-4.996-.445-.375-.585-.478-1.157-.84-1.47-.931-3.406-1.474-5.453-1.54a10.935 10.935 0 0 0-4.077.634c-2.401.865-4.328 2.628-5.519 5.057-.189.383-.441.976-.56 1.318-.115.338-.231.667-.251.729-.041.115-.169.156-.218.074-.062-.099.49-1.598.832-2.277.877-1.738 2.039-3.06 3.575-4.085a9.53 9.53 0 0 1 1.38-.762c.89-.362 1.223-.474 1.894-.634a17.035 17.035 0 0 1 1.936-.288c.457-.033 1.643.021 2.273.099zm-.77 1.38c2.232.161 4.3 1.087 5.828 2.615.354.35.77.832.96 1.112.642.943 1.03 1.672 1.318 2.496.107.301.099.408-.037.379-.058-.008-.119-.124-.227-.404-.255-.684-.511-1.186-1.046-2.055-.288-.465-1.153-1.441-1.619-1.824-1.75-1.433-3.682-2.109-6.021-2.109-2.063 0-3.727.519-5.453 1.705a6.192 6.192 0 0 0-.292.226c-.988.803-1.709 1.676-2.224 2.689a9.248 9.248 0 0 0-.535 1.396c-.058.202-.091.259-.152.259-.041 0-.087-.025-.099-.058-.062-.165.354-1.31.708-1.94a8.39 8.39 0 0 1 2.71-2.936c.453-.301 1.236-.721 1.598-.857 1.223-.461 2.092-.655 3.163-.717.548-.029.766-.025 1.421.021zm-.54 2.343c-.004.037.037.115.091.169.095.095.128.226.07.284-.016.012-.025.202-.016.416.008.371.008.391-.074.391-.049 0-.087.016-.087.041 0 .021.033.041.074.041.045 0 .103.066.152.181.049.107.103.173.132.161.033-.012.054.012.054.07 0 .066-.016.086-.066.066-.107-.041-.181.054-.181.231 0 .086-.016.239-.037.334l-.091.412c-.029.132-.066.222-.082.206-.033-.037-.119-.527-.148-.869-.029-.317-.144-.42-.465-.42-.202 0-.251-.012-.288-.082-.025-.045-.07-.082-.103-.082-.049 0-.062-.082-.062-.453v-.453h.103c.103 0 .103.004.103.329 0 .346.029.399.194.358.066-.016.062-.025-.016-.049-.086-.029-.095-.054-.095-.375 0-.268.012-.346.058-.346.033 0 .066-.029.082-.062.029-.078.189-.082.189-.004 0 .058.14.115.181.074a.44.44 0 0 0 .025-.177c0-.115.025-.173.107-.239.058-.045.095-.103.078-.128a.107.107 0 0 1 0-.086c.041-.062.124-.021.119.062zm-3.298 6.581c.107.054.189.156.194.226 0 .074-.226.066-.288-.008s-.173-.078-.239-.012-.066.494 0 .56c.074.074.189.058.247-.033a.204.204 0 0 1 .165-.082c.128 0 .136.029.07.177-.111.243-.552.259-.725.033-.07-.091-.07-.667 0-.754.119-.152.395-.206.577-.107zm13.162.008a.422.422 0 0 1 .161.169c.058.128.066.47.008.614-.095.247-.548.301-.729.087-.078-.087-.095-.157-.095-.383 0-.301.062-.441.222-.502a.545.545 0 0 1 .432.016zm1.235 0a.422.422 0 0 1 .161.169c.058.128.066.47.008.614-.095.247-.548.301-.729.087-.078-.087-.095-.157-.095-.383 0-.301.062-.441.222-.502a.545.545 0 0 1 .432.016zm-22.235.087c0 .091-.016.103-.144.103h-.144v.416c0 .404 0 .412-.091.399s-.095-.037-.115-.404l-.021-.391-.124-.012c-.152-.016-.206-.066-.173-.148.021-.054.099-.066.42-.066.391 0 .391 0 .391.103zm.647.041c0 .066.008.148.008.173.004.033.066.054.169.054h.165v-.185c0-.177.004-.185.124-.185h.128l-.012.502-.012.507h-.103c-.095 0-.103-.016-.115-.198l-.012-.194h-.165c-.136 0-.161.012-.165.091a.702.702 0 0 0 0 .132c.021.111-.049.194-.152.181l-.111-.012-.025-1.013.136.012c.119.012.136.029.144.136zm1.816-.054c-.012.086-.037.095-.268.107-.226.012-.259.025-.259.091 0 .07.029.082.226.082.214 0 .227.004.227.103s-.012.103-.226.103-.226.004-.226.103.008.103.272.103h.268l-.012.111c-.012.111-.021.115-.301.128-.498.016-.474.045-.474-.527v-.494h.395c.383 0 .391.004.379.091zm1.82-.049c.095.049.136.226.078.334-.033.066-.033.111.004.181.152.284-.078.482-.535.465l-.268-.012-.012-.507-.012-.502h.334c.185 0 .371.016.412.041zm.791.008c.004.029.008.202.012.383v.329l.259.012c.255.012.259.012.247.124s-.012.111-.362.111h-.35l-.012-.507-.012-.502h.107c.058 0 .107.025.111.049zm1.479.062c.177.449.313.881.28.902-.062.037-.198-.025-.243-.111-.07-.124-.342-.107-.428.025-.07.107-.132.124-.218.07-.045-.029.082-.445.276-.906.062-.14.276-.128.334.021zm2.137.062v.173l.181-.177c.144-.144.202-.173.309-.161l.128.012-.169.194-.165.198.165.276c.091.152.156.288.144.309-.012.016-.066.033-.124.033-.074 0-.132-.049-.226-.198-.066-.107-.144-.194-.173-.194s-.058.078-.07.185c-.016.165-.033.185-.124.185h-.103l-.012-.507-.012-.502h.128c.119 0 .124.008.124.173zm1.878.012c.029.091.058.198.058.235 0 .152.07.066.136-.173.062-.214.082-.247.169-.247s.111.037.181.255c.045.152.087.235.103.198.012-.033.045-.144.078-.247.045-.165.07-.185.181-.198l.132-.012-.14.465c-.074.255-.14.478-.14.49 0 .045-.119.078-.185.054-.033-.012-.087-.124-.124-.247s-.082-.214-.099-.202c-.021.012-.058.111-.087.226-.049.198-.144.288-.247.227-.029-.021-.165-.416-.317-.939-.016-.066 0-.074.111-.062s.14.037.189.177zm1.911-.082c0 .074-.021.103-.082.103-.074 0-.082.029-.082.284s.008.288.087.313c.058.021.078.058.07.115-.012.082-.041.091-.268.103-.251.012-.259.008-.259-.087 0-.058.029-.111.062-.128.045-.016.062-.091.062-.313 0-.231-.012-.288-.062-.288-.037 0-.062-.037-.062-.103 0-.099.008-.103.268-.103s.268.004.268.103zm.659.288v.391h.251c.247 0 .247 0 .235.111s-.021.115-.301.124c-.457.012-.432.041-.432-.527v-.49h.247v.391zm1.59-.292c.099.082.115.132.132.367.016.259.012.28-.107.4-.115.115-.148.124-.416.124h-.292v-.988h.284c.243 0 .305.016.399.099zm1.944-.009c-.008.074-.045.099-.144.107l-.132.012-.012.4c-.012.395-.012.399-.115.399s-.103-.004-.115-.404l-.012-.399h-.14c-.128 0-.144-.012-.144-.103v-.103h.416c.404 0 .412 0 .399.091zm.893.103c.037.111.115.313.169.457.128.325.124.379-.004.379-.074 0-.115-.029-.144-.103-.033-.091-.066-.103-.227-.103s-.194.012-.227.103c-.041.103-.177.14-.227.062-.021-.033.111-.449.297-.939.012-.025.082-.049.157-.049.119 0 .14.016.206.194zm1.298-.09c0 .086-.021.103-.124.103h-.124v.387c0 .358-.008.391-.082.416-.161.049-.206-.045-.206-.437v-.362l-.132-.012c-.103-.008-.14-.033-.148-.107-.012-.091-.004-.091.399-.091h.416v.103zm1.144-.013c-.008.074-.045.099-.144.107l-.132.012-.012.4c-.012.395-.012.399-.115.399s-.103-.004-.115-.404l-.012-.399h-.14c-.128 0-.144-.012-.144-.103v-.103h.416c.404 0 .412 0 .399.091zm-.16 2.846c.045.058-.025.284-.313 1.017-.152.395-.622 1.289-.898 1.709-.791 1.207-1.878 2.257-3.048 2.945-.301.177-.976.507-1.219.597-1.417.523-2.788.733-4.155.634-.733-.049-1.001-.091-1.606-.243-.712-.181-.873-.231-1.083-.325-.103-.049-.202-.087-.214-.087s-.128-.045-.251-.103a2.644 2.644 0 0 0-.239-.103c-.045 0-.927-.507-1.198-.692-1.565-1.063-2.768-2.623-3.348-4.353-.189-.568-.243-.844-.169-.89.099-.062.136-.021.214.235.169.568.218.717.362 1.067a7.997 7.997 0 0 0 1.787 2.677c1.829 1.841 4.37 2.776 7.034 2.582 2.277-.165 4.184-1.03 5.778-2.619.317-.317.964-1.096.964-1.161 0-.016.033-.07.074-.115.115-.136.474-.745.7-1.198.198-.404.334-.721.564-1.33.107-.292.173-.35.264-.243zm1.54.136c-.004.144-.202.766-.445 1.417-.037.103-.21.482-.387.844-.63 1.301-1.31 2.245-2.323 3.212-.807.778-1.404 1.194-2.422 1.709-2.463 1.236-5.646 1.479-8.315.638a9.998 9.998 0 0 1-4.094-2.508c-1.165-1.194-2.002-2.574-2.623-4.324-.251-.708-.305-.918-.239-.997.058-.07.202-.004.202.091 0 .033.082.309.185.614.943 2.829 2.599 4.897 4.954 6.194.988.548 2.372.972 3.632 1.12.61.074 1.981.074 2.615 0 2.467-.28 4.567-1.281 6.182-2.932.568-.585.848-.927 1.244-1.528.642-.968 1.198-2.133 1.511-3.184.152-.519.173-.564.259-.548.054.012.07.054.062.181zm-11.264 3.278c.078.078.058.231-.033.288-.045.029-.082.066-.082.082 0 .021.037.033.082.033s.082.029.082.062c0 .045-.049.062-.181.062-.103 0-.194-.016-.21-.041-.012-.021.045-.111.128-.206.152-.169.161-.264.016-.173a.336.336 0 0 1-.103.049c-.029 0-.025-.148.008-.177.045-.045.239-.033.292.021zm.577-.016c.029.021.054.119.058.235.004.21-.066.309-.218.309-.161 0-.259-.313-.161-.498.045-.082.222-.107.321-.045zm.597.058c.033.049.029.099-.012.185-.033.062-.066.128-.074.144-.008.021.012.033.049.033s.066.029.066.062c0 .045-.049.062-.181.062-.103 0-.198-.021-.214-.045-.012-.025.045-.115.132-.206.165-.169.165-.251-.004-.161-.128.066-.165.037-.103-.082.058-.107.276-.103.342.008zm.568-.005c.037.074.029.111-.041.206-.091.124-.107.165-.054.157.087-.016.128.012.107.066-.016.041-.082.062-.206.062-.222 0-.239-.078-.058-.235.132-.111.165-.218.062-.218-.033 0-.062.016-.062.041 0 .021-.029.041-.062.041s-.062-.025-.062-.054c0-.161.292-.214.375-.066z"/><path d="M16.63 9.023c-.049.029-.074.091-.07.194 0 .082.012.128.025.099.025-.062.177-.066.177-.004 0 .033.021.033.062-.004.087-.074.078-.235-.016-.288-.095-.049-.091-.049-.177.004zm.165.153c.008.029-.012.049-.049.049s-.066-.029-.066-.066c0-.07.091-.058.115.016zm-.774.564v.309h.329v-.618h-.329v.309zm.494-.301c-.004.008-.008.14-.012.301l-.004.288.346.025v-.622h-.165a.901.901 0 0 0-.165.008z"/><path d="m15.741 9.913.012.404.548.012c.35.008.544-.004.544-.033 0-.025-.189-.041-.515-.041h-.515v-.371c0-.226-.016-.371-.041-.371-.029 0-.041.144-.033.399z"/><path d="M16.268 10.131c0 .021.045.041.103.041s.103-.021.103-.041c0-.025-.045-.041-.103-.041s-.103.016-.103.041zm-.412.289c0 .025.214.041.56.041.358 0 .548-.016.531-.041s-.247-.041-.56-.041c-.325 0-.531.016-.531.041zm.618.164c0 .021.103.041.227.041s.227-.021.227-.041c0-.025-.103-.041-.227-.041s-.227.016-.227.041zm.164.33c0 .194.008.206.103.206s.103-.012.103-.206c0-.194-.008-.206-.103-.206s-.103.012-.103.206zm.042.432c0 .103.021.185.041.185.025 0 .041-.054.041-.119s.012-.148.025-.185c.016-.045.004-.066-.041-.066-.049 0-.066.041-.066.185zm9.628 4.267c-.058.033-.074.095-.074.284 0 .202.012.251.082.288.185.099.288-.021.288-.338 0-.226-.132-.334-.297-.235zm1.236 0c-.058.033-.074.095-.074.284 0 .202.012.251.082.288.115.062.247.012.251-.095.025-.342.016-.412-.033-.465-.07-.066-.128-.07-.227-.012zm-18.113.284v.292l.173-.012c.128-.008.181-.033.189-.082.008-.045-.021-.074-.082-.082-.144-.021-.152-.185-.012-.239.156-.058.107-.14-.095-.156l-.173-.012v.292zm2.537-.074c-.041.161-.029.198.074.198.095 0 .099-.008.054-.144-.049-.165-.091-.181-.128-.054zm7.965.074v.288h.124c.144 0 .206-.095.206-.317 0-.189-.058-.259-.214-.259h-.115v.288zm3.031-.111c-.012.058-.037.132-.049.169-.021.049 0 .066.082.066.099 0 .107-.012.082-.115-.049-.194-.087-.235-.115-.119zm-6.845 6.099c-.037.103 0 .251.066.251.041 0 .066-.049.074-.157.008-.115 0-.152-.054-.152a.102.102 0 0 0-.087.058z"/></svg></svg>