<svg aria-hidden="true" style="position: absolute; width: 0; height: 0; overflow: hidden;" version="1.1" xmlns="http://www.w3.org/2000/svg" xmlns:xlink="http://www.w3.org/1999/xlink">
<defs>
<symbol id="icon-telegram" viewBox="0 0 32 32">
<path d="M13.040 24.867l0.373-5.64 10.24-9.227c0.453-0.413-0.093-0.613-0.693-0.253l-12.64 7.987-5.467-1.733c-1.173-0.333-1.187-1.147 0.267-1.733l21.293-8.213c0.973-0.44 1.907 0.24 1.533 1.733l-3.627 17.080c-0.253 1.213-0.987 1.507-2 0.947l-5.52-4.080-2.653 2.573c-0.307 0.307-0.56 0.56-1.107 0.56z"></path>
</symbol>
<symbol id="icon-instagram" viewBox="0 0 32 32">
<path d="M16.096 9.28c-3.712 0-6.752 3.040-6.752 6.752s3.040 6.752 6.752 6.752c3.712 0 6.72-3.040 6.72-6.752s-3.040-6.752-6.72-6.752zM16.096 21.184c-2.848 0-5.152-2.304-5.152-5.152s2.304-5.152 5.152-5.152c2.816 0 5.12 2.304 5.12 5.152s-2.304 5.152-5.12 5.152z"></path>
<path d="M23.616 5.472c-0.704 0-1.344 0.256-1.824 0.736s-0.736 1.12-0.736 1.824c0 0.704 0.256 1.344 0.736 1.824s1.12 0.736 1.824 0.736 1.344-0.256 1.824-0.736v0c0.448-0.448 0.736-1.088 0.768-1.792v-0.032c0-0.672-0.288-1.312-0.736-1.76-0.48-0.512-1.152-0.8-1.856-0.8zM24.288 8.704c-0.352 0.352-1.024 0.352-1.376 0-0.192-0.192-0.288-0.416-0.288-0.672s0.096-0.512 0.288-0.672c0.192-0.192 0.416-0.288 0.672-0.288s0.512 0.096 0.704 0.288c0.16 0.16 0.288 0.416 0.288 0.64 0 0.288-0.096 0.544-0.288 0.704z"></path>
<path d="M21.696 2.24h-11.232c-4.512 0-8.16 3.648-8.16 8.16v11.264c0 4.512 3.648 8.16 8.16 8.16h11.264c4.512 0 8.16-3.648 8.16-8.16v-11.264c-0.032-4.512-3.68-8.16-8.192-8.16zM28.256 21.664c0 3.616-2.944 6.56-6.56 6.56h-11.232c-3.616 0-6.56-2.944-6.56-6.56v-11.264c0-3.616 2.944-6.56 6.56-6.56h11.264c3.616 0 6.56 2.944 6.56 6.56v11.264z"></path>
</symbol>
<symbol id="icon-phone" viewBox="0 0 32 32">
<path d="M24.882 19.773l-3.268-0.373c-0.785-0.090-1.557 0.18-2.11 0.733l-2.367 2.367c-3.641-1.853-6.626-4.825-8.478-8.478l2.38-2.38c0.553-0.553 0.823-1.325 0.733-2.11l-0.373-3.242c-0.154-1.299-1.248-2.277-2.56-2.277h-2.226c-1.454 0-2.663 1.209-2.573 2.663 0.682 10.987 9.469 19.761 20.443 20.443 1.454 0.090 2.663-1.119 2.663-2.573v-2.226c0.013-1.3-0.965-2.393-2.264-2.547z"></path>
</symbol>
<symbol id="icon-map" viewBox="0 0 32 32">
<path d="M31.182 0.387c-0.347-0.255-0.763-0.386-1.183-0.386-0.201 0-0.404 0.030-0.601 0.092l-8.881 2.804-8.384-2.795c-0.205-0.069-0.418-0.102-0.633-0.102-0.234 0-0.469 0.041-0.691 0.123l-9.5 3.5c-0.786 0.289-1.308 1.038-1.308 1.877v24.5c0 0.637 0.303 1.236 0.818 1.613 0.347 0.254 0.762 0.387 1.182 0.387 0.202 0 0.405-0.031 0.602-0.093l8.898-2.81 8.898 2.81c0.196 0.062 0.398 0.093 0.602 0.093 0.214 0 0.427-0.034 0.633-0.102l9-3c0.817-0.273 1.367-1.037 1.367-1.898v-25c0-0.637-0.303-1.236-0.818-1.613zM29.698 1.047c0.098-0.031 0.199-0.046 0.302-0.046 0.212 0 0.422 0.069 0.592 0.193 0.256 0.188 0.409 0.489 0.409 0.806v12.543c-0.117-0.018-0.238-0.041-0.366-0.066-0.584-0.117-0.95-0.261-1.39-0.773-0.52-0.594-0.218-1.555-0.791-2.057-0.221-0.189-0.433-0.252-0.647-0.252-0.412-0.001-0.831 0.234-1.337 0.252-0.833 0.037-1.406 0.378-2.097 0.378-0.213 0-0.439-0.032-0.686-0.117-0.671-0.23-0.928-0.755-1.589-1.030-0.213-0.090-0.407-0.146-0.596-0.187v-3.096c0.563 0.2 1.065 0.386 1.788 0.456 0.395 0.040 0.715 0.19 1.035 0.19 0.18 0 0.36-0.048 0.554-0.19 0.599-0.447 1.114-1.261 0.796-2.054-0.207-0.522-0.706-0.326-0.997-0.772-0.313-0.492-0.165-0.942-0.392-1.539 0.142-0.438 0.384-0.746 0.518-1.093l4.897-1.546zM23.349 4.042c0.055 0.146 0.073 0.293 0.095 0.479 0.038 0.325 0.090 0.771 0.388 1.239 0.302 0.46 0.698 0.633 0.936 0.724 0.008 0.264-0.25 0.582-0.474 0.753-0.061-0.008-0.169-0.035-0.253-0.056-0.177-0.045-0.397-0.1-0.654-0.126-0.577-0.056-0.98-0.199-1.489-0.381-0.123-0.044-0.26-0.091-0.397-0.138v-2.901l1.981-0.626c-0.052 0.115-0.105 0.231-0.149 0.367-0.070 0.217-0.064 0.452 0.017 0.665zM20.5 10.607c-0.271 0.005-0.55 0.020-0.864 0.020-0.102 0-0.207-0.002-0.317-0.007-0.059-0.002-0.116-0.004-0.174-0.004-0.553 0-0.977 0.107-1.451 0.107-0.233 0-0.479-0.026-0.759-0.103-0.645-0.179-1.181-0.094-1.589-0.766-0.475-0.797-0.45-1.759 0-2.576 0.472-0.845 1.184-0.653 1.987-0.769 0.148-0.020 0.288-0.029 0.422-0.029 0.998 0 1.657 0.513 2.744 0.796v3.332zM15.722 22.108c-0.265 0.645-0.755 0.779-1.303 0.779-0.094 0-0.19-0.004-0.286-0.010-0.589-0.035-0.854-0.454-1.39-0.77-0.511-0.301-0.863-0.713-1.242-1.038v-6.49c0.373 0.505 0.52 1.018 1.040 1.355 0.202 0.131 0.395 0.177 0.582 0.177 0.45 0 0.877-0.264 1.353-0.264 0.145 0 0.294 0.024 0.45 0.088 0.799 0.333 1.477 0.539 1.785 1.549 0.201 0.65 0.207 1.148 0 1.794-0.204 0.652-0.802 0.618-0.989 1.285-0.168 0.569 0.215 1.009 0 1.544zM1 9.578c0.438-0.004 0.861-0.033 1.42-0.062 0.697-0.039 1.197-0.408 1.769-0.408 0.192 0 0.392 0.041 0.611 0.151 0.668 0.326 0.793 1.037 1.393 1.538 0.905 0.759 1.623 0.646 2.582 1.288 0.714 0.479 1.209 0.879 1.726 1.393v7.105c-0.047-0.006-0.090-0.020-0.14-0.021-0.186-0.006-0.355-0.027-0.512-0.027-0.242 0-0.46 0.051-0.678 0.288-0.377 0.405-0.053 1.093-0.395 1.539-0.249 0.331-0.528 0.434-0.833 0.434-0.296 0-0.615-0.096-0.955-0.177-0.682-0.155-0.907-0.863-1.587-1.027-0.255-0.061-0.458-0.11-0.665-0.11-0.165 0-0.33 0.031-0.527 0.11-0.844 0.343-0.985 1.294-1.393 2.315-0.334 0.845-0.002 1.744-0.594 2.308-0.288 0.274-0.563 0.359-0.861 0.359-0.115 0-0.236-0.013-0.359-0.032v-16.965zM1.655 4.562l8.845-3.259v10.822c-0.351-0.294-0.722-0.569-1.169-0.869-0.541-0.363-1.009-0.528-1.423-0.674-0.418-0.147-0.72-0.254-1.074-0.551-0.15-0.126-0.268-0.303-0.405-0.511-0.253-0.382-0.569-0.857-1.192-1.161-0.33-0.165-0.686-0.252-1.049-0.252-0.451 0-0.827 0.129-1.157 0.242-0.244 0.084-0.455 0.156-0.667 0.168l-0.403 0.023c-0.367 0.020-0.662 0.036-0.961 0.038v-3.078c0-0.417 0.263-0.794 0.654-0.938zM2.301 30.953c-0.098 0.031-0.2 0.047-0.301 0.047-0.214 0-0.418-0.067-0.591-0.194-0.256-0.188-0.409-0.489-0.409-0.806v-2.452c0.117 0.014 0.236 0.027 0.359 0.027 0.596 0 1.104-0.208 1.552-0.636 0.628-0.598 0.679-1.358 0.716-1.913 0.018-0.28 0.037-0.545 0.118-0.75 0.090-0.224 0.169-0.45 0.244-0.666 0.241-0.688 0.37-0.998 0.595-1.090 0.089-0.036 0.128-0.036 0.15-0.036 0.090 0 0.248 0.038 0.431 0.082 0.074 0.018 0.198 0.137 0.33 0.263 0.277 0.265 0.656 0.628 1.269 0.767l0.181 0.044c0.298 0.073 0.636 0.157 0.995 0.157 0.658 0 1.222-0.288 1.633-0.833 0.357-0.465 0.373-0.988 0.384-1.333 0.001-0.027 0.002-0.058 0.003-0.090 0.028 0.002 0.056 0.004 0.085 0.006 0.091 0.007 0.186 0.013 0.285 0.016 0.059 0.003 0.114 0.014 0.17 0.034v6.767l-8.198 2.59zM11.802 28.143l-0.302-0.095v-5.623c0.211 0.186 0.447 0.375 0.735 0.546 0.12 0.071 0.235 0.16 0.355 0.255 0.328 0.258 0.777 0.61 1.484 0.651 0.114 0.008 0.23 0.012 0.345 0.012 1.097 0 1.846-0.471 2.228-1.399 0.224-0.558 0.131-1.038 0.070-1.356-0.023-0.115-0.047-0.246-0.035-0.288l0.009-0.026c0.015-0.020 0.092-0.080 0.148-0.125 0.238-0.187 0.636-0.5 0.829-1.117 0.263-0.823 0.264-1.538 0-2.389-0.421-1.383-1.398-1.783-2.182-2.104l-0.174-0.072c-0.271-0.111-0.549-0.165-0.835-0.165-0.386 0-0.716 0.098-0.98 0.177-0.146 0.043-0.296 0.088-0.373 0.088-0.010-0.001-0.019-0.004-0.039-0.016-0.144-0.094-0.238-0.246-0.405-0.53-0.139-0.238-0.313-0.533-0.573-0.829-0.217-0.246-0.415-0.463-0.607-0.665v-12.075c0.108 0 0.214 0.017 0.316 0.052l8.684 2.894v2.283c-0.252-0.080-0.489-0.168-0.731-0.265-0.591-0.238-1.203-0.484-2.013-0.484-0.182 0-0.369 0.013-0.557 0.038-0.146 0.021-0.294 0.030-0.449 0.040-0.654 0.040-1.642 0.099-2.276 1.233-0.637 1.157-0.631 2.491 0.014 3.575 0.548 0.902 1.315 1.045 1.823 1.14 0.127 0.024 0.246 0.046 0.358 0.077 0.34 0.094 0.676 0.139 1.026 0.139 0.285 0 0.537-0.029 0.781-0.056 0.226-0.025 0.439-0.050 0.669-0.050 0.043 0 0.087 0.001 0.133 0.002 0.125 0.005 0.243 0.008 0.358 0.008 0.208 0 0.402-0.007 0.588-0.013 0.095-0.004 0.184-0.005 0.276-0.007v19.284l-8.7-2.747zM30.316 27.948l-8.816 2.939v-19.163c0.068 0.022 0.136 0.044 0.209 0.075 0.177 0.073 0.314 0.189 0.503 0.349 0.277 0.233 0.622 0.524 1.149 0.705 0.338 0.115 0.668 0.171 1.011 0.171 0.477 0 0.89-0.111 1.254-0.209 0.299-0.081 0.58-0.156 0.887-0.17 0.366-0.013 0.683-0.101 0.938-0.171 0.125-0.034 0.265-0.073 0.338-0.079 0.039 0.071 0.075 0.296 0.099 0.447 0.070 0.429 0.164 1.018 0.604 1.521 0.609 0.709 1.198 0.945 1.947 1.095l0.052 0.011c0.166 0.031 0.336 0.059 0.511 0.080v11.453c-0 0.431-0.276 0.813-0.684 0.948z"></path>
<path d="M27.653 19.661c-0.339-0.104-0.659-0.202-1.005-0.202-0.326 0-0.62 0.088-0.902 0.271-0.316 0.209-0.407 0.466-0.428 0.645-0.055 0.483 0.302 0.861 0.68 1.262 0.253 0.268 0.635 0.673 0.561 0.866-0.048 0.128-0.193 0.198-0.489 0.317-0.369 0.148-0.927 0.37-1.047 1.035-0.068 0.369 0.016 0.708 0.242 0.98 0.319 0.381 0.895 0.591 1.627 0.591 0.745 0 1.477-0.215 1.964-0.578 0.826-0.634 1.143-1.56 0.942-2.752-0.201-1.215-0.932-2.055-2.145-2.436zM28.253 24.052c-0.305 0.228-0.84 0.375-1.36 0.375-0.459 0-0.762-0.116-0.858-0.232-0.017-0.020-0.047-0.055-0.027-0.16 0.018-0.099 0.096-0.151 0.435-0.286 0.358-0.143 0.847-0.339 1.053-0.891 0.297-0.776-0.32-1.429-0.77-1.906-0.119-0.126-0.285-0.302-0.367-0.422 0.262-0.139 0.562-0.048 1.027 0.095 0.821 0.259 1.288 0.793 1.427 1.637 0.141 0.832-0.033 1.386-0.559 1.789z"></path>
</symbol>
<symbol id="icon-sendMessage" viewBox="0 0 32 32">
<path d="M30 4h-28c-1.105 0-2 0.894-2 2v20c0 1.105 0.894 2 2 2h28c1.105 0 2-0.895 2-2v-20c0-1.106-0.895-2-2-2zM2 5h28c0.552 0 1 0.448 1 1v1.234l-15 11.142-15-11.143v-1.234c0-0.552 0.448-1 1-1zM30 27h-28c-0.552 0-1-0.448-1-1v-1.404l9.292-6.691c0.224-0.161 0.275-0.474 0.114-0.698s-0.473-0.274-0.698-0.114l-8.708 6.271v-14.884l14.701 10.921c0.089 0.066 0.194 0.099 0.299 0.099s0.209-0.032 0.299-0.099l14.701-10.921v14.884l-8.708-6.27c-0.224-0.161-0.537-0.11-0.698 0.114s-0.11 0.537 0.114 0.698l9.292 6.689v1.404c0 0.552-0.448 1-1 1z"></path>
</symbol>
</defs>
</svg>
